# Blender 4.4.0
# www.blender.org
mtllib CornellBox.mtl
o Cornell_Box_(flipped)_and_camera_parameters
v -54.959999 0.000000 -55.919998
v 0.000000 0.000000 0.000000
v 0.000000 0.000000 -55.919998
v -55.279999 0.000000 0.000000
v -13.000000 0.000000 -6.500000
v -24.000000 0.000000 -27.200001
v -8.200000 0.000000 -22.500000
v -29.000000 0.000000 -11.400000
v -42.299999 0.000000 -24.700001
v -31.400000 0.000000 -45.599998
v -26.500000 0.000000 -29.600000
v -47.200001 0.000000 -40.599998
v -26.500000 33.000000 -29.600000
v -42.299999 33.000000 -24.700001
v -55.599998 54.880001 -55.919998
v -21.299999 54.880001 -33.200001
v -34.299999 54.880001 -33.200001
v 0.000000 54.880001 -55.919998
v 0.000000 54.880001 0.000000
v -55.599998 54.880001 0.000000
v -29.000000 16.500000 -11.400000
v -8.200000 16.500000 -22.500000
v -24.000000 16.500000 -27.200001
v -13.000000 16.500000 -6.500000
v -47.200001 33.000000 -40.599998
v -31.400000 33.000000 -45.599998
v -34.299999 54.880001 -22.700001
v -21.299999 54.880001 -22.700001
vn -0.0000 1.0000 -0.0000
vn -0.0000 -1.0000 -0.0000
vn 0.2962 -0.0000 0.9551
vn -0.0000 -0.0000 1.0000
vn -1.0000 -0.0000 -0.0000
vn 0.9999 0.0117 -0.0000
vn 1.0000 0.0058 0.0057
vn -0.9534 -0.0000 -0.3017
vn -0.2928 -0.0000 0.9562
vn 0.9578 -0.0000 0.2873
vn 0.2851 -0.0000 -0.9585
vn -0.9556 -0.0000 0.2945
vn -0.3017 -0.0000 -0.9534
vn 0.9562 -0.0000 -0.2928
s 0
usemtl White
f 1//1 2//1 3//1
f 1//1 4//1 2//1
f 5//2 6//2 7//2
f 5//2 8//2 6//2
f 9//2 10//2 11//2
f 9//2 12//2 10//2
f 9//3 13//3 14//3
f 9//3 11//3 13//3
f 15//2 16//2 17//2
f 15//2 18//2 16//2
f 15//4 3//4 18//4
f 15//4 1//4 3//4
f 21//1 22//1 23//1
f 21//1 24//1 22//1
f 6//8 21//8 23//8
f 6//8 8//8 21//8
f 8//9 24//9 21//9
f 8//9 5//9 24//9
f 5//10 22//10 24//10
f 5//10 7//10 22//10
f 7//11 23//11 22//11
f 7//11 6//11 23//11
f 25//1 13//1 26//1
f 25//1 14//1 13//1
f 12//12 14//12 25//12
f 12//12 9//12 14//12
f 10//13 25//13 26//13
f 10//13 12//13 25//13
f 11//14 26//14 13//14
f 11//14 10//14 26//14
f 19//2 27//2 28//2
f 19//2 20//2 27//2
f 18//2 28//2 16//2
f 18//2 19//2 28//2
f 20//2 17//2 27//2
f 20//2 15//2 17//2
f 16//2 27//2 17//2
f 16//2 28//2 27//2
usemtl Red
f 20//6 1//6 15//6
f 20//7 4//7 1//7
usemtl Green
f 18//5 2//5 19//5
f 18//5 3//5 2//5
